<svg width="22.500000" height="21.750000" viewBox="0 0 22.5 21.75" fill="none" xmlns="http://www.w3.org/2000/svg" xmlns:xlink="http://www.w3.org/1999/xlink">
	<desc>
			Created with Pixso.
	</desc>
	<defs/>
	<path id="Icon" d="M0.75 9.25L0.75 2.75C1.07 2.45 1.25 2.29 1.58 2L19.91 2C20.24 2.29 20.42 2.45 20.75 2.75L20.75 10.25M11.25 21L2.25 21L0.75 19.75L0.75 8.25L2.25 7L19.25 7L20.75 8.25M5.75 11L7.75 11M5.75 14L7.75 14M5.75 17L7.75 17M9.75 11L11.75 11M9.75 14L11.75 14M9.75 17L11.75 17M5.75 0L5.75 4M15.75 0L15.75 4M16.75 21C13.98 21 11.75 18.76 11.75 16C11.75 13.23 13.98 11 16.75 11C19.51 11 21.75 13.23 21.75 16C21.75 18.76 19.51 21 16.75 21ZM16.75 14L16.75 17L18.75 17" stroke="#55555C" stroke-opacity="1.000000" stroke-width="1.500000"/>
</svg>
