<svg width="18.500000" height="22.500000" viewBox="0 0 18.5 22.5" fill="none" xmlns="http://www.w3.org/2000/svg" xmlns:xlink="http://www.w3.org/1999/xlink">
	<desc>
			Created with Pixso.
	</desc>
	<defs/>
	<path id="Icon" d="M5.25 18.75C4.66 18.26 4.33 17.98 3.75 17.5L3.75 2C4.33 1.51 4.66 1.23 5.25 0.75L9.75 0.75L13.25 0.75L17.75 4.75L17.75 17.5C17.16 17.98 16.83 18.26 16.25 18.75L5.25 18.75ZM14.75 18.75L14.75 20.5L13.25 21.75L2.25 21.75L0.75 20.5L0.75 5L2.25 3.75L3.25 3.75M17.55 6.5L14.25 6.5L12.75 5.25L12.75 1.25M6.75 4.75L10.75 4.75M6.75 9.75L12.75 9.75M6.75 14.75L14.75 14.75" stroke="#0E0E10" stroke-opacity="1.000000" stroke-width="1.500000"/>
</svg>
